<svg version="1.1" id="Layer_5" xmlns="http://www.w3.org/2000/svg" x="0" y="0" viewBox="0 0 512 512" xml:space="preserve"><style>.st0{fill:#30454f}</style><path class="st0" d="M144 264a104 104 0 100 208 104 104 0 000-208zm0 192a88 88 0 110-176 88 88 0 010 176zM440 376c-6 0-11 2-16 4-5-3-10-4-16-4-18 0-32 14-32 32a32 32 0 0048 28c5 2 10 4 16 4 18 0 32-14 32-32s-14-32-32-32zm-48 32a16 16 0 0120-15c-2 4-4 9-4 15s2 11 4 15l-4 1c-9 0-16-7-16-16zm48 16c-9 0-16-7-16-16s7-16 16-16 16 7 16 16-7 16-16 16z"/><path class="st0" d="M504 184v-44L361 20a52 52 0 00-66 0L152 140v44h16v50A136 136 0 008 368a136 136 0 00224 104h248c13 0 24-11 24-24V288c0-10-7-19-16-22v-82h16zm-336-16v-16h320v16H168zm312 112c4 0 8 4 8 8v24H268c-5-12-12-22-20-32h232zm-206 48h214v16H278l-4-16zm22-144v80h-64v-80h64zm16 80v-80h32v80h-32zm48 0v-80h64v80h-64zM230 136l90-77c5-4 12-4 16 0l91 77H230zm75-104c13-10 33-10 46 0l123 104h-22L346 46c-10-8-26-8-36 0l-105 90h-23L305 32zM184 184h32v69c-10-6-21-11-32-15v-54zM24 368a120 120 0 11240 0 120 120 0 01-240 0zm456 88H248c20-24 32-54 32-88v-8h208v88c0 4-4 8-8 8zm-8-192h-32v-80h32v80z"/><path class="st0" d="M304 96c0 13 11 24 24 24s24-11 24-24-11-24-24-24-24 11-24 24zm32 0c0 4-4 8-8 8s-8-4-8-8 4-8 8-8 8 4 8 8zM157 299h-41c-4 0-7 3-7 7v59h-9a8 8 0 000 15h9v17h-9a8 8 0 000 16h9v17a8 8 0 0015 0v-17h33a8 8 0 000-15h-33v-18h33a41 41 0 000-81zm0 65h-33v-50h33a25 25 0 010 50z"/></svg>