<svg version="1.1" id="Layer_1" xmlns="http://www.w3.org/2000/svg" x="0" y="0" viewBox="0 0 512 512" xml:space="preserve"><style>.st0{fill:#666}</style><path class="st0" d="M372 299c0-4-1-8-3-11l-2-3 3-2a22 22 0 006-31l-2-3 3-2c7-4 12-12 12-21 0-14-12-26-26-26h-62l5-6c13-14 21-30 23-44 1-9-2-17-7-23-5-5-11-8-19-8-7 0-13 2-18 7s-8 11-8 18v1c0 3-4 9-11 17-7 6-18 14-34 19-5 2-10 5-14 10l-12 10-2 2-2-1-6-2h-51c-7 0-13 6-13 13v137c0 7 6 13 13 13h51c5 0 9-2 12-7l1-1h133a22 22 0 0018-33l-2-3 3-2c7-4 11-11 11-18zm-22 12h-8c-3 0-5 2-5 5s2 4 5 4a13 13 0 010 26H209v-81c0-3-2-5-4-5s-5 2-5 5v85c0 2-2 4-4 4h-51c-2 0-4-2-4-4V213c0-2 2-4 4-4h51c2 0 4 2 4 4v17c0 3 2 5 5 5s4-2 4-5v-17-2l2-2c6-4 10-9 13-12 3-4 7-6 11-7 18-6 31-16 38-23 8-8 13-17 13-22s2-9 5-12 8-5 12-5c6 0 10 3 12 5 4 4 5 10 5 16-2 16-15 37-34 52-1 1-2 3-1 5 0 2 2 3 4 3h74c9 0 17 8 17 17s-8 17-17 17h-4c-3 0-5 2-5 4s2 5 5 5a13 13 0 010 25h-9c-2 0-4 2-4 5s2 4 4 4a13 13 0 010 25z"/><path class="st0" d="M166 324c0 3 2 5 5 5s4-2 4-5l-1-3-3-1c-3 0-5 2-5 4z"/><path class="st0" d="M508 294l-14-38 14-38c1-1 0-3-1-4l-25-31 2-41-2-4-34-22-10-39-3-3-39-10-22-34-4-2-41 2-31-25c-1-1-3-2-4-1l-38 14-38-14c-1-1-3 0-4 1l-31 25-41-2-4 2-22 34-39 10-3 3-11 39-33 22c-2 1-2 3-2 4l2 40-25 32c-1 1-2 3-1 4l14 38-14 38c-1 1 0 3 1 4l25 31-2 41 2 4 34 22 10 39 3 3 39 10 22 34 4 2 40-2 32 25c1 1 3 2 4 1l38-14 38 14c1 1 3 0 4-1l31-25 41 2 4-2 22-34 39-10 3-3 10-39 34-22 2-4-2-41 25-31c2-1 2-3 1-4zm-34 31l-1 3 2 40-33 21-2 3-10 38-38 10-3 2-21 33-40-2-3 1-30 25-37-14h-4l-36 14-31-25-3-1-40 2-21-33-3-2-38-10-10-38-2-3-33-21 2-40-1-3-25-31 14-36v-4l-14-37 25-30 1-3-2-40 33-21 2-3 10-38 38-10 3-2 21-33 40 2 3-1 31-25 36 14h4l37-14 30 25 3 1 40-2 21 33 3 2 38 10 10 38 2 3 33 21-2 40 1 3 25 30-14 37v4l14 36-25 31z"/><path class="st0" d="M398 114l-6-7-3-1h-1a5 5 0 00-4 5l2 3 6 6a323 323 0 019 7 5 5 0 004-4c1-1 0-2-1-3l-6-6zM365 92c1-2 1-5-1-6a202 202 0 00-262 299l3 2 3-1 2-3-1-4A192 192 0 01236 65c43-5 87 5 123 29 2 1 5 0 6-2zM264 457a200 200 0 00192-180c5-45-6-91-30-129l-3-2h-4l-2 3 1 4a193 193 0 01-289 249 4 4 0 00-4 5l1 3c39 32 88 49 138 47z"/></svg>